# xmcd CD database file
#
# Track frame offsets:
#	150
#	13328
#	31608
#	49008
#	66571
#	88046
#	108110
#	123314
#	142281
#	163139
#	180073
#	198729
#	213933
#	232283
#	247487
#	263717
#	281683
#	297363
#	312414
#	331074
#
# Disc length: 4632 seconds
#
# Revision: 0
# Processed by: cddbd v1.4PL0 Copyright (c) Steve Scherf et al.
# Submitted via: Feurio! 1.66 - http://www.feurio.com
#
DISCID=37121614
DTITLE=Shania Twain - Up!
DYEAR=1900
DGENRE=
TTITLE0=Up!
TTITLE1=Im Gonna Getcha Good
TTITLE2=She's Not Just A Pretty Face
TTITLE3=Juanita
TTITLE4=Forever And For Always
TTITLE5=Ain't No Particular Way
TTITLE6=It Only Hurts When I'm Breathing
TTITLE7=Nah!
TTITLE8=That's Good!
TTITLE9=C'est La Vie
TTITLE10=I'm Jealous
TTITLE11=Ka-Ching!
TTITLE12=Thank You Baby
TTITLE13=Waiter! Bring Me Water!
TTITLE14=What A Way To Wanna Be!
TTITLE15=I Ain't Goin' Down
TTITLE16=I'm Not In The Mood (To Say No)!
TTITLE17=In My Car
TTITLE18=When You Kiss Me
TTITLE19=That Don´t Impress Me Much
EXTD=
EXTT0=www.simplemp3s.com
EXTT1=
EXTT2=Shania Twain - Up 2002
EXTT3=www.simplemp3s.com
EXTT4=Shania Twain - Up 2002
EXTT5=Shania Twain - Up 2002
EXTT6=www.music369.com
EXTT7=Shania Twain - Up 2002
EXTT8=www.simplemp3s.com
EXTT9=www.sharereactor.com
EXTT10=www.sharereactor.com
EXTT11=Shania Twain - Up 2002
EXTT12=www.simplemp3s.com
EXTT13=www.music369.com
EXTT14=www.simplemp3s.com
EXTT15=
EXTT16=www.sharereactor.com
EXTT17=www.sharereactor.com
EXTT18=www.simplemp3s.com
EXTT19=
PLAYORDER=
